# xmcd
#
# Track frame offsets:
#	150
#	13670
#	24902
#	40675
#	54075
#	70137
#	92467
#	109325
#	124962
#	142975
#	162717
#	175972
#	192372
#	203922
#	221550
#	240060
#	260195
#	272982
#	288582
#	306650
#	321697
#	332915
#
# Disc length: 4633 seconds
#
# Revision: 1
# Processed by: cddbd v1.4PL0 Copyright (c) Steve Scherf et al.
# Submitted via: audiograbber 1.80
#
DISCID=54121716
DTITLE=Downchild Blues Band - Dancing /Road Fever
DYEAR=1900
DGENRE=
TTITLE0=Going dancing
TTITLE1=Tell your mother
TTITLE2=When I go to work
TTITLE3=Please forgive
TTITLE4=Set a date
TTITLE5=Tell me baby
TTITLE6=Must have been the devil
TTITLE7=Let's go strollin'
TTITLE8=Something on your mind
TTITLE9=The argument
TTITLE10=Madison blues
TTITLE11=Road fever
TTITLE12=Stages of love
TTITLE13=Caught in the middle
TTITLE14=Low tide
TTITLE15=Money trouble
TTITLE16=What you gonna do?
TTITLE17=Try to fall in love with me
TTITLE18=You don't do
TTITLE19=She won't come home
TTITLE20=Half ain't been told
TTITLE21=TV Mamma
EXTD=
EXTT0=
EXTT1=
EXTT2=
EXTT3=
EXTT4=
EXTT5=
EXTT6=
EXTT7=
EXTT8=
EXTT9=
EXTT10=
EXTT11=
EXTT12=
EXTT13=
EXTT14=
EXTT15=
EXTT16=
EXTT17=
EXTT18=
EXTT19=
EXTT20=
EXTT21=
PLAYORDER=
